<svg id="Layer_1" data-name="Layer 1" xmlns="http://www.w3.org/2000/svg" viewBox="0 0 280 300"><defs><style>.cls-1{fill:#ed1c24;fill-rule:evenodd;}</style></defs><title>shoprite holdings logo</title><path class="cls-1" d="M139.65,152.71a15.54,15.54,0,0,1-8.83-.58c-5-1.73-8.42-5.1-11.3-9.19-1.21-1.72-2.43-4.53-5.06-5.18-4.36-1.07-6.16,1.53-6.36,5a33.94,33.94,0,0,0,1,9.18,19.09,19.09,0,0,0,3.06,7.18,11.26,11.26,0,0,0,4.47,3.18c4.92,2.44,11.8,4.08,18.89,4.46v11.72H108.78c-12.9,0-23.35-5.31-23.35-11.87V95c0-6.55,10.45-11.86,23.35-11.86h26.88V94.86a38.85,38.85,0,0,0-4.25.52c-7.93,1.57-14,4.85-17.77,10.36a21.09,21.09,0,0,0-3.53,7.77,20.73,20.73,0,0,0,2.11,14.13,25.78,25.78,0,0,0,8.36,8.59A48.59,48.59,0,0,0,132,141.77c2.15.75,4.34,1.35,6.36,2.11,1.83.7,4.81,1.75,5.18,3.42C144.29,150.66,141.42,152.21,139.65,152.71Z"/><path class="cls-1" d="M192.25,95v71.61c0,6.56-10.46,11.87-23.36,11.87H144.53v-12a42.56,42.56,0,0,0,4.31-.69c8.55-1.82,16-5.88,19.89-12.59a23.25,23.25,0,0,0,3-8,22.33,22.33,0,0,0-2.36-14.13c-2-3.42-5.56-6-9.06-7.65-4.38-2.12-7.33-2.75-12.48-4.24a59,59,0,0,1-6.24-2.11c-2.09-.88-3.95-2.24-4.12-4.25-.46-5.45,6.75-5,10.36-4,4.19,1.18,6.33,3.59,8.95,6,1.4,1.3,3,3.13,5.41,3.65,4.47.94,7.68-1.62,8.48-4.95.73-3.06-.37-6-1.3-8a24.1,24.1,0,0,0-2.12-3.77c-1.61-2.34-3.86-5.07-6.12-5.65-3-.78-5.45.74-8.47.59a22.47,22.47,0,0,1-3.77-.71c-1.25-.28-2.65-.55-4.11-.77V83.09h24.16C181.79,83.09,192.25,88.4,192.25,95Z"/><path class="cls-1" d="M125.72,206.27a11.11,11.11,0,0,0-1-4.23,9.17,9.17,0,0,0-2.35-2.93,11.3,11.3,0,0,0-8.11-2.44h-.07a11.15,11.15,0,0,0-4.32.92,9.84,9.84,0,0,0-4.35,3.56,11,11,0,0,0-.89,1.75c-.06.16-.17.27-.23.43s-.07.35-.13.53a9.41,9.41,0,0,0-.3,1,10,10,0,0,0,3.43,9.44,10.93,10.93,0,0,0,3.36,1.91,13.57,13.57,0,0,0,6.9.39,10,10,0,0,0,7.32-5.87A10.15,10.15,0,0,0,125.72,206.27Zm-8.48,6a2.46,2.46,0,0,1-2.8-.27c-1.45-1.13-2.37-3.45-2.9-5.67a10.82,10.82,0,0,1-.36-2.47c0-1.33.57-2.79,2-3a2.65,2.65,0,0,1,2.21.73,6.77,6.77,0,0,1,1.35,1.94,16.06,16.06,0,0,1,1,2.31C118.21,207.59,118.83,211.15,117.24,212.27Z"/><path class="cls-1" d="M71.24,196.73a12.15,12.15,0,0,1,3.43.34,5.67,5.67,0,0,0,1,.19c.85.05,1.53-.38,2.38-.16a3.82,3.82,0,0,1,1.71,1.58,6.89,6.89,0,0,1,.6,1.06,3.51,3.51,0,0,1,.36,2.24,1.91,1.91,0,0,1-2.38,1.38,3.32,3.32,0,0,1-1.51-1,5.86,5.86,0,0,0-2.51-1.68c-1-.28-3-.41-2.9,1.12,0,.56.57.94,1.15,1.19a17.2,17.2,0,0,0,1.75.59,18.91,18.91,0,0,1,3.5,1.19,5.88,5.88,0,0,1,2.54,2.14,6.24,6.24,0,0,1-.17,6.2,8.18,8.18,0,0,1-5.57,3.53,15.25,15.25,0,0,1-9-1,3.1,3.1,0,0,1-1.25-.89,5.41,5.41,0,0,1-.86-2,9.89,9.89,0,0,1-.27-2.57c.06-1,.56-1.69,1.79-1.39.73.18,1.07,1,1.41,1.45a6.51,6.51,0,0,0,3.17,2.58,4.39,4.39,0,0,0,2.47.16,1.3,1.3,0,0,0,1.09-1.52c-.1-.47-.94-.76-1.45-.95s-1.18-.39-1.78-.6a13.43,13.43,0,0,1-3.2-1.55,7.08,7.08,0,0,1-2.34-2.4,5.66,5.66,0,0,1,.4-6.14,7.46,7.46,0,0,1,5-2.9,13.09,13.09,0,0,1,1.45-.17Z"/><path class="cls-1" d="M195.64,198.32a1.26,1.26,0,0,0,.2-.46c.49-1,2.46-.92,4-.83,1.73.11,3.58.07,5.37.07,2.23,0,4.17-.08,6.11-.27a3.34,3.34,0,0,1,1.22,0c1.4.38,2.17,2.92,1.78,4.68a1.59,1.59,0,0,1-2.15,1.32c-.5-.21-.87-1-1.22-1.35a3.48,3.48,0,0,0-1.55-1,8.31,8.31,0,0,0-2.34-.23c-.63,0-1.81-.07-2.21.33a3.54,3.54,0,0,0-.39,2c0,.77-.13,2,.23,2.34a2.21,2.21,0,0,0,1.91.1c.9-.42.43-2.45,1.39-2.8a1.6,1.6,0,0,1,1.68.53c.92,1.14.86,4.62.39,6.36a2.69,2.69,0,0,1-.89,1.55,1.68,1.68,0,0,1-1.42.17c-.76-.41-.34-2.31-1.12-2.74a2.64,2.64,0,0,0-1.55,0c-.66.26-.53,1.44-.53,2.54s0,2,.6,2.34a4.66,4.66,0,0,0,2.14.23c2.1,0,3.46-.39,4.42-1.48.55-.63.89-1.71,1.62-2a1.59,1.59,0,0,1,1.81.59,3.71,3.71,0,0,1,.17,2,7.23,7.23,0,0,1-.47,1.82,9.32,9.32,0,0,1-.75,1.52c-.26.43-.67,1-1.13,1.15a2.61,2.61,0,0,1-1-.07,20.9,20.9,0,0,0-3.06-.36c-1.58-.07-3.13,0-4.56,0h-4.58c-1.35,0-3.52.23-4-.53a1.67,1.67,0,0,1-.1-1.28c.26-.65,1.35-.82,1.71-1.39a3.46,3.46,0,0,0,.33-1,26.14,26.14,0,0,0,.37-5.28c0-1.71,0-3.54-.11-5.14a4.17,4.17,0,0,0-.36-1.48,2.41,2.41,0,0,0-1.28-.8,2.5,2.5,0,0,0,.19.76,4.65,4.65,0,0,1,0,2.64A2,2,0,0,1,194,204a3.34,3.34,0,0,1-1.88-1.74c-.27-.45-.62-1.47-1.39-1.42s-.65.95-.65,1.91c0,2.26-.17,4.51-.17,6.86a8,8,0,0,0,.23,2.57,1.74,1.74,0,0,0,.43.63c.39.35,1.36.48,1.65,1a1.71,1.71,0,0,1,0,1.22,2.34,2.34,0,0,1-1.65,1.09,11.62,11.62,0,0,1-2.34.36,18.12,18.12,0,0,1-6.43-.52,2.17,2.17,0,0,1-1.29-1,1.25,1.25,0,0,1,.82-1.68c.48-.21,1-.3,1.22-.73a4.52,4.52,0,0,0,.37-1.28,35.31,35.31,0,0,0,.33-4.58c0-.91,0-2,0-3.27,0-1,0-2.44-.76-2.51-.48,0-.81.37-1,.63s-.49.69-.69,1A4,4,0,0,1,179,204a1.74,1.74,0,0,1-2.15-1,2.15,2.15,0,0,1-.23-1.26,6,6,0,0,1,.43-1.61,11.17,11.17,0,0,1,.69-1.32,6.12,6.12,0,0,1,1.39-1.68,1.81,1.81,0,0,1,1.09-.5,15,15,0,0,1,1.48.3c.73.06,1.59,0,2.48,0h2.44c1.69,0,3.46.1,4.88,0,.64-.05,1.25-.31,1.81-.3a2.31,2.31,0,0,1,1.82,1,4.11,4.11,0,0,0,.49.63Z"/><path class="cls-1" d="M216.68,197.43a1.08,1.08,0,1,0-1,1.51A1.11,1.11,0,0,0,216.68,197.43Zm-.26.95a.92.92,0,0,1-1.65-.49.84.84,0,0,1,.79-.89A.89.89,0,0,1,216.42,198.38Z"/><path class="cls-1" d="M144.22,200.56c-1-2.85-4.31-3.84-8.21-3.66l-4.22.2a19.05,19.05,0,0,1-2.14.06c-1.48-.1-3.54-.24-4.09.73a1.41,1.41,0,0,0,0,1.22c.31.57,1.45.61,2,1.22s.43,2,.43,3.23,0,2.1,0,3.17c0,1.64,0,3.14-.14,4.61a3.82,3.82,0,0,1-.26,1.36c-.36.64-1.41.62-1.68,1.38a1.53,1.53,0,0,0,.59,1.72,5.87,5.87,0,0,0,2.37.69,23.63,23.63,0,0,0,3,.13c1.88,0,4.28-.17,4.85-1.35a1.54,1.54,0,0,0,.07-1.19c-.27-.63-1.21-.67-1.55-1.22a3.19,3.19,0,0,1-.33-1.58,10.73,10.73,0,0,1,.06-1.85,9.66,9.66,0,0,1,1.09.07c4.08.16,7.23-1.19,8.28-4.12A8.16,8.16,0,0,0,144.22,200.56Zm-7.62,5.28a2.65,2.65,0,0,1-1.12.43c-.88.11-.88-.44-.92-1.36s0-2,0-2.93c0-.76,0-1.61.59-1.78a2,2,0,0,1,1.52.39C138,201.65,137.93,204.87,136.6,205.84Z"/><path class="cls-1" d="M175.13,212.73a6.49,6.49,0,0,1-.37-3c0-1.11,0-2.2,0-3.16s.09-2,.1-3.07c0-.47,0-1,.1-1.49a4.63,4.63,0,0,1,.24-1.38c.13-.25.49-.42.75-.59a1.33,1.33,0,0,0,.7-1.72c-.54-1.34-3.49-1.35-5.28-1.35a17.42,17.42,0,0,0-3.07.23c-.93.17-1.86.52-2.14,1.18a1.3,1.3,0,0,0,0,1.06c.3.63,1.26.71,1.61,1.35a7.38,7.38,0,0,1,.3,2.9c0,2.26.05,4.11-.1,6.31a5.65,5.65,0,0,1-.52,2.7c-.32.37-.88.53-1.22.83-.12.09-.18.3-.4.29a3.11,3.11,0,0,0-.69-.29c-.47-.18-.7-.27-.86-.7a7.82,7.82,0,0,1-.27-1.41,12.46,12.46,0,0,0-.52-1.95,4,4,0,0,0-1.91-2.25c-.42-.18-1.69-.28-1.69-.82s1-.73,1.29-.89a4.1,4.1,0,0,0,1.84-3.86c-.24-3.71-3.74-4.72-7.58-4.72-.5,0-1.1,0-1.65.07-1.56.09-3,.09-4.65.07a18.88,18.88,0,0,0-3,.06c-.93.14-1.91.33-2.11,1.06a1.48,1.48,0,0,0,0,.82c.1.3.43.49.76.66a4,4,0,0,1,.89.53,3,3,0,0,1,.36,1.49c.05.55.07,1.15.07,1.68a60.46,60.46,0,0,1-.24,8.44,4.61,4.61,0,0,1-.36,1.39,3.11,3.11,0,0,1-.79.49c-.27.16-.59.32-.69.63a1.9,1.9,0,0,0,0,.92c.28.94,2.08,1.21,3.49,1.29.81,0,1.59.06,2.35.06a10.69,10.69,0,0,0,4-.53,1.36,1.36,0,0,0,.27-.13,1.43,1.43,0,0,0,.43-1.64c-.3-.65-1.25-.68-1.55-1.29a5.64,5.64,0,0,1-.2-2.25v-1.21a3.87,3.87,0,0,1,.07-1.16c1.48-.47,2.26.4,2.67,1.52.28.75.45,1.61.66,2.37.5,1.88,1,3.38,2.7,4,1.92.72,5.35.57,6.7-.57a1.84,1.84,0,0,1,.46-.36,3.23,3.23,0,0,0,.82.53c1.58.72,4.84.8,7,.5a5.47,5.47,0,0,0,2-.6,1.41,1.41,0,0,0,.7-1.58C176.47,213.5,175.53,213.33,175.13,212.73Zm-20.19-7.85a2.38,2.38,0,0,1-2.17.26,14.4,14.4,0,0,1-.1-2.53c0-1.09-.13-2.46.79-2.58a2.73,2.73,0,0,1,1,.13c.08,0,.18,0,.23,0a2.32,2.32,0,0,1,1,2.17A3.51,3.51,0,0,1,154.94,204.88Z"/><path class="cls-1" d="M85.55,197c1.75-.13,4.78-.07,5.77.73a1.05,1.05,0,0,1,.27.2,1.68,1.68,0,0,1,.16,1.25c-.23.78-1.24.8-1.58,1.48a5.22,5.22,0,0,0-.17,2,3,3,0,0,0,.13,1.52c.33.51,1.44.5,2.35.46s2,0,2.37-.43.18-1.34.17-1.94a3.86,3.86,0,0,0-.33-1.78c-.3-.48-1.12-.61-1.32-1.06a1.62,1.62,0,0,1,0-1.19c.29-.67,1.21-.94,2.11-1.08a19.05,19.05,0,0,1,3-.17,22,22,0,0,1,3,.13c.83.13,1.86.36,2.17,1A1.41,1.41,0,0,1,103,200c-.33.19-.7.26-.89.53a3.33,3.33,0,0,0-.3,1.38,70.93,70.93,0,0,0,0,8.12c0,.42,0,1,.06,1.58a4.37,4.37,0,0,0,.23,1.42c.15.24.49.33.73.46a1.35,1.35,0,0,1,.63.53,1.61,1.61,0,0,1-.27,1.65,4.4,4.4,0,0,1-2.27.79,15.73,15.73,0,0,1-2.94.13,16.84,16.84,0,0,1-2.84-.23c-.83-.18-1.7-.58-1.91-1.12a1.85,1.85,0,0,1,0-1.12,1.8,1.8,0,0,1,.69-.8c.33-.21.76-.31.89-.59a3.92,3.92,0,0,0,.13-1c0-.37,0-.74.07-1.09,0-.6.15-1.75-.17-2.18a1.56,1.56,0,0,0-1-.4,14.81,14.81,0,0,0-2.74.1,2.05,2.05,0,0,0-1.12.4,4.53,4.53,0,0,0-.2,2.28,5.76,5.76,0,0,0,.4,2.14c.17.26.49.37.72.53a1.51,1.51,0,0,1,.63.62,2.07,2.07,0,0,1,0,1c-.23.67-1.28,1.09-2.08,1.26a16.88,16.88,0,0,1-3.07.26,14.43,14.43,0,0,1-3.09-.23c-.88-.19-1.83-.57-2.08-1.25a1.26,1.26,0,0,1,.69-1.69c.27-.12.63-.16.82-.36.44-.45.46-2.07.5-2.93.1-2.21.12-4.36,0-6.7,0-.44,0-1.06-.06-1.65a3.55,3.55,0,0,0-.3-1.39c-.2-.24-.57-.3-.83-.42a1.17,1.17,0,0,1-.66-1.62,2.51,2.51,0,0,1,1.69-1,14.39,14.39,0,0,1,2.47-.3Z"/><path class="cls-1" d="M215.26,197.39c.07.28-.15.93.13,1s0-.51.2-.49.17.5.5.49c.06-.13-.16-.25-.17-.42s.22-.12.27-.24C216.32,197.2,215.52,197.22,215.26,197.39Zm.2.33v-.23c.18-.05.46-.1.56.07S215.61,197.83,215.46,197.72Z"/></svg>